<svg id="Layer_1" data-name="Layer 1" xmlns="http://www.w3.org/2000/svg" viewBox="0 0 1080 1080"><defs><style>.cls-1{fill:#f48b34;stroke:#0f0f0f;}.cls-1,.cls-3{stroke-miterlimit:10;stroke-width:3px;}.cls-2{font-size:62.83px;fill:#7f1d1d;font-family:BMYEONSUNG-OTF-KSCpc-EUC-H, BM Yeonsung;}.cls-3{fill:#9ac1ad;stroke:#1e3f2c;}.cls-4{font-size:70.41px;fill:#f7ead5;font-family:Trattatello;}.cls-5{fill:#224c3b;}</style></defs><title>Achyut Shop logo</title><circle class="cls-1" cx="541.77" cy="522.36" r="366.59"/><text class="cls-2" transform="translate(254.07 725.3) rotate(51.08)">N</text><text class="cls-2" transform="translate(281.26 758.03) rotate(45.47)">I</text><text class="cls-2" transform="matrix(0.76, 0.65, -0.65, 0.76, 300.23, 777.39)">C</text><text class="cls-2" transform="matrix(0.83, 0.56, -0.56, 0.83, 329.75, 802.04)">H</text><text class="cls-2" transform="translate(361.83 823.32) rotate(27.98)">P</text><text class="cls-2" transform="translate(394.1 840.35) rotate(21.56)">U</text><text class="cls-2" transform="matrix(0.97, 0.26, -0.26, 0.97, 433.78, 855.64)">R</text><text class="cls-2" transform="translate(472.14 865.17) rotate(10)">,</text><text class="cls-2" transform="translate(490.69 868.37) rotate(6.77)"> </text><text class="cls-2" transform="matrix(1, 0.04, -0.04, 1, 512.12, 871)">T</text><text class="cls-2" transform="translate(546.98 872.55) rotate(-4.41)">Q</text><text class="cls-2" transform="translate(596.27 867.95) rotate(-10.96)">-</text><text class="cls-2" transform="translate(626.68 861.98) rotate(-16.46)">K</text><text class="cls-2" transform="translate(661.49 851.27) rotate(-21.64)">I</text><text class="cls-2" transform="translate(686.94 841.34) rotate(-27.32)">N</text><text class="cls-2" transform="translate(725.68 821.28) rotate(-35.18)">W</text><text class="cls-2" transform="matrix(0.74, -0.68, 0.68, 0.74, 768.75, 789.88)">A</text><text class="cls-2" transform="matrix(0.67, -0.75, 0.75, 0.67, 795.54, 764.97)">T</text><circle class="cls-3" cx="541.77" cy="521.39" r="296.83"/><text class="cls-4" transform="translate(220.3 504.51) rotate(-80.85)">A</text><text class="cls-4" transform="translate(227.33 463.1) rotate(-74.76)">C</text><text class="cls-4" transform="translate(233.83 436.86) rotate(-68.06)">H</text><text class="cls-4" transform="translate(251.72 392.63) rotate(-59.87)">Y</text><text class="cls-4" transform="translate(274.01 354.22) rotate(-52.11)">U</text><text class="cls-4" transform="matrix(0.72, -0.7, 0.7, 0.72, 300.58, 319.88)">T</text><text class="cls-4" transform="translate(334.26 288.04) rotate(-38.47)"> </text><text class="cls-4" transform="translate(348.69 275.71) rotate(-32.76)">K</text><text class="cls-4" transform="translate(386.77 251.26) rotate(-24.96)">R</text><text class="cls-4" transform="translate(424.51 233.56) rotate(-17.45)">U</text><text class="cls-4" transform="matrix(0.98, -0.18, 0.18, 0.98, 465.43, 220.92)">S</text><text class="cls-4" transform="translate(498.92 214.16) rotate(-3.38)">H</text><text class="cls-4" transform="matrix(1, 0.05, -0.05, 1, 546.95, 212.03)">I</text><text class="cls-4" transform="matrix(0.99, 0.11, -0.11, 0.99, 567.64, 212.99)"> </text><text class="cls-4" transform="matrix(0.98, 0.19, -0.19, 0.98, 586.7, 214.7)">S</text><text class="cls-4" transform="translate(620.41 221.18) rotate(16.97)">E</text><text class="cls-4" transform="translate(652.83 230.58) rotate(24.24)">V</text><text class="cls-4" transform="matrix(0.85, 0.52, -0.52, 0.85, 692.39, 248.23)">A</text><text class="cls-4" transform="matrix(0.8, 0.6, -0.6, 0.8, 728.65, 271.1)"> </text><text class="cls-4" transform="translate(744.21 281.96) rotate(42.65)">K</text><text class="cls-4" transform="matrix(0.65, 0.76, -0.76, 0.65, 777.35, 312.93)">E</text><text class="cls-4" transform="matrix(0.54, 0.84, -0.84, 0.54, 799.81, 338.02)">N</text><text class="cls-4" transform="translate(829.9 386.04) rotate(66.85)">D</text><text class="cls-4" transform="translate(847.98 428.39) rotate(74.63)">R</text><text class="cls-4" transform="translate(859.32 469.54) rotate(82.23)">A</text><polygon class="cls-5" points="715.72 638.81 745 692.41 641.76 692.41 618.27 648.89 612.48 638.81 590.95 601.36 569.42 563.88 547.89 526.42 543.68 519.07 526.36 488.94 543.68 458.81 547.89 451.49 569.42 414 590.95 376.56 612.48 339.07 618.27 328.99 634.01 301.62 737.25 301.62 715.72 339.07 709.97 349.08 694.19 376.56 672.66 414 651.13 451.49 635.38 478.86 629.6 488.94 635.38 499.02 651.13 526.42 672.66 563.88 694.19 601.36 709.97 628.8 715.72 638.81"/><path class="cls-5" d="M526.79,301.64l-21.51,37.44-21.54,37.47L462.2,414l-2.67,4.59L440.69,451.5,419.15,489l-21.54,37.48L385,548.4l-8.87,15.45-21.54,37.54-52.88,91H569.56l18.53-75.33-17.35-31.17-120.87-.52,9.66-16.84,2.67-4.7,10.35-18H547.4L531,514.79H490.46L505.28,489l21.51-37.47,7.34-12.74L548.33,414l21.54-37.48,21.55-37.47L608.73,309l4.19-7.31ZM552.31,625l-9.93,35.21H406.61l12.54-21.39L427.08,625Z"/></svg>