<svg id="Layer_1" data-name="Layer 1" xmlns="http://www.w3.org/2000/svg" viewBox="0 0 1080 1080"><defs><style>.cls-1,.cls-6{fill:#9dc0d6;}.cls-2{fill:#123962;}.cls-3{fill:#e5e5e5;}.cls-4{fill:#fff;}.cls-5,.cls-6{font-size:160.87px;font-family:ArialRoundedMTBold, Arial Rounded MT Bold;}.cls-5{fill:blue;}.cls-6{letter-spacing:-0.09em;}.cls-7{letter-spacing:0em;}</style></defs><title>Logo</title><path class="cls-1" d="M926.49,421.47c0-216.54-173-392.09-386.49-392.09a381.46,381.46,0,0,0-243.31,87.47l5.21-2.57s8.46-3.62,9.9,3.93,0,17.31,0,17.31l-1,25.49-1.28,28.47,2.08,11,26-19.66,13.09-8,16.28-9,23.63-12S405,148,404.23,156.6a130.91,130.91,0,0,1-3.67,19l-14.69,56.63s-3.83,12,5.43,14.95,42.3,9,42.3,9l15.49,3.15a59,59,0,0,1,23.62,13.06l13.89,16.2,6.39,6.93,5.43,5,5.58,4.56,8.14,5.67,9.26,4.72,9.26,3.61,9.9,2.52,9.9,1.73,10.06.47,14.52-.47h23.31l21.87.63,40.71,1.42a35.55,35.55,0,0,1,26.82,16c10.53,15.74,1.59,34.3,1.59,34.3l-4,8.65-5.74,15.89-8,19.51-12.13,26.59-15.32,31.93s-7,14.63-22.19,21.4c0,0-2.56,1.89-10.86,3.77s-21.07,4.88-21.07,4.88l-17.72,4.09-22,5.35-19,4.56L504.64,529l-10.06,2.2s-11.49,2.21-11.49,14.79,2.24,20.45,2.24,20.45,5.26,17.47,7.5,19.51c0,0,9.58,18.25,13.89,20.93l13.09,15.41,18,21.4,19.95,26.11,12.29,21.4s10.86,23.44,11.82,27.69c0,0,7.18,21.55,9.1,40.27s-1.28,42.32-1.28,42.32l-1.44,6.61a12.54,12.54,0,0,1-1.65,2.63C778.1,787.33,926.49,622,926.49,421.47Z"/><path class="cls-2" d="M385.74,767.63c8-25.68,7.4-51.57,1.5-77.48-5.34-23.43-8.07-46.92-3.14-70.76,4.5-21.77,15.77-39.84,31.33-55.57,16.71-16.89,25.81-37,26-60.74,0-4.13.08-8,6.4-7.54-9.75-.74-14.44-6.93-17.47-14.56-1.77-4.44-3.95-5-8.27-3.36a84.45,84.45,0,0,1-28.77,5.81c-15,.26-27.59-5-37.5-16.15-4.85-5.46-11.22-7.14-18-6.21-61.48,8.36-100.58,46-109,105.62-2.71,19.25-.51,38.37,9.69,55.8,9,15.3,22.21,23.47,40.27,23.92.62-1.6-.65-1.07-1.12-1.21a24.54,24.54,0,0,0-2.92-.5c3.52-5,8.41-8.15,11.59-12.88,11.35-16.91,12.78-35.33,9.32-54.67-2.77-15.51-7.54-30.76-5.61-46.91.39-3.26-1.88-6.83-2.89-10.26a47.62,47.62,0,0,1-2-7.31c-.25-2-.09-4.67,2.59-5.1,2.22-.36,3.26,1.72,3.89,3.56,7.24,21,20,39,32.31,57.32,10.52,15.6,16.58,32.87,14.15,52-4.22,33.14-34,49.49-62.89,45.73-9.23-1.21-14.35.71-20.07,8q-2.53,3.24-5.15,6.42a387.92,387.92,0,0,0,133.5,99.4A39.76,39.76,0,0,1,385.74,767.63ZM357.73,511c-.28,1.51-1.51,2-2.87,1.91-10.82-.54-18.42,4-23,13.71-.77,1.64-2.11,3.53-4.48,2.52-1.89-.81-1.58-2.8-1.61-4.46-.18-11.37,7.13-19.85,17.53-19.8a41.38,41.38,0,0,1,12.49,3.22C357,508.71,358,509.53,357.73,511Z"/><path class="cls-2" d="M589.73,801.46s3.19-23.6,1.28-42.32-9.1-40.27-9.1-40.27c-1-4.25-11.82-27.69-11.82-27.69l-12.29-21.4-19.95-26.11-18-21.4-13.09-15.41c-4.31-2.68-13.89-20.93-13.89-20.93-2.24-2-7.5-19.51-7.5-19.51s-2.24-7.86-2.24-20.45,11.49-14.79,11.49-14.79l10.06-2.2,26.66-6.61,19-4.56,22-5.35,17.72-4.09s12.77-3,21.07-4.88S622,499.72,622,499.72c15.16-6.77,22.19-21.4,22.19-21.4l15.32-31.93,12.13-26.59,8-19.51,5.74-15.89,4-8.65s8.94-18.56-1.59-34.3a35.55,35.55,0,0,0-26.82-16L620.22,324l-21.87-.63H575l-14.52.47-10.06-.47-9.9-1.73-9.9-2.52-9.26-3.61-9.26-4.72L504,305.11l-5.58-4.56-5.43-5-6.39-6.93-13.89-16.2a59,59,0,0,0-23.62-13.06l-15.49-3.15s-33-6-42.3-9-5.43-14.95-5.43-14.95l14.69-56.63a130.91,130.91,0,0,0,3.67-19c.8-8.65-13.57-4.72-13.57-4.72l-23.63,12-16.28,9-13.09,8-26,19.66-2.08-11L310.84,161l1-25.49s1.44-9.75,0-17.31-9.9-3.93-9.9-3.93l-5.21,2.57c-87.34,71.88-143.18,181.63-143.18,304.62a394,394,0,0,0,87.84,248.88c1.65-2,3.29-4,4.9-6,7.16-9,7.12-8.82-1.78-15.42-18.79-13.91-27.41-33.59-29.13-55.7-4.12-53,15.85-95.49,60.9-125.12,17.72-11.66,38.2-18.06,59.58-20.33,10.27-1.1,20.62.42,27.79,8.54,12.51,14.16,27.78,16.18,44.92,11.51,6-1.62,11.81-3.75,17.59-5.95a66.38,66.38,0,0,1,12.91-3.7C452,456,463.52,462.23,467.1,474.7a104.09,104.09,0,0,1,3.48,43.21c-2.56,18.43-12.34,32.9-25.91,45.37C428,578.61,416.29,597,411.51,619.2c-3.65,17-2.79,34,.81,50.87C420,706,419.91,741.66,408.69,777c-.38,1.2-2.19,11.21-2.42,12.45-7-2.42-13.66-8.73-21.33-8.73A380.39,380.39,0,0,0,540,813.55a386,386,0,0,0,46.64-2.85,12.54,12.54,0,0,0,1.65-2.63ZM449.34,354.79A21.83,21.83,0,1,1,471.48,333,22,22,0,0,1,449.34,354.79Z"/><path class="cls-3" d="M449.34,311.14A21.83,21.83,0,1,0,471.48,333,22,22,0,0,0,449.34,311.14Z"/><path class="cls-4" d="M255.2,674.25c5.72-7.31,10.84-9.23,20.07-8,28.92,3.76,58.67-12.59,62.89-45.73,2.43-19.18-3.63-36.45-14.15-52-12.34-18.29-25.07-36.27-32.31-57.32-.63-1.84-1.67-3.92-3.89-3.56-2.68.43-2.84,3.08-2.59,5.1a47.62,47.62,0,0,0,2,7.31c1,3.43,3.28,7,2.89,10.26-1.93,16.15,2.84,31.4,5.61,46.91,3.46,19.34,2,37.76-9.32,54.67-3.18,4.73-8.07,7.89-11.59,12.88a24.54,24.54,0,0,1,2.92.5c.47.14,1.74-.39,1.12,1.21-18.06-.45-31.31-8.62-40.27-23.92-10.2-17.43-12.4-36.55-9.69-55.8,8.4-59.58,47.5-97.26,109-105.62,6.79-.93,13.16.75,18,6.21,9.91,11.17,22.47,16.41,37.5,16.15a84.45,84.45,0,0,0,28.77-5.81c4.32-1.65,6.5-1.08,8.27,3.36,3,7.63,7.72,13.82,17.47,14.56-6.32-.48-6.36,3.41-6.4,7.54-.22,23.75-9.32,43.85-26,60.74-15.56,15.73-26.83,33.8-31.33,55.57-4.93,23.84-2.2,47.33,3.14,70.76,5.9,25.91,6.52,51.8-1.5,77.48a39.76,39.76,0,0,0-2.19,12.44l1.39.61c9,4.8,14.09,6.22,21.33,8.73.11-.63,1.81-10.11,2.42-12.45,9.21-35.88,11.27-71,3.63-106.89-3.6-16.89-4.46-33.88-.81-50.87,4.78-22.22,16.47-40.59,33.16-55.92,13.57-12.47,23.35-26.94,25.91-45.37a104.09,104.09,0,0,0-3.48-43.21C463.52,462.23,452,456,439,458.17a66.38,66.38,0,0,0-12.91,3.7c-5.78,2.2-11.62,4.33-17.59,5.95-17.14,4.67-32.41,2.65-44.92-11.51-7.17-8.12-17.52-9.64-27.79-8.54C314.44,450,294,456.44,276.24,468.1c-45.05,29.63-65,72.17-60.9,125.12,1.72,22.11,10.34,41.79,29.13,55.7,8.9,6.6,8.94,6.44,1.78,15.42-1.61,2-3.25,4-4.9,6q4.26,5.24,8.7,10.32Q252.66,677.49,255.2,674.25Z"/><path class="cls-4" d="M355.77,508.14a41.38,41.38,0,0,0-12.49-3.22c-10.4-.05-17.71,8.43-17.53,19.8,0,1.66-.28,3.65,1.61,4.46,2.37,1,3.71-.88,4.48-2.52,4.6-9.67,12.2-14.25,23-13.71,1.36.07,2.59-.4,2.87-1.91S357,508.71,355.77,508.14Z"/><text class="cls-5" transform="translate(177.65 950.88) scale(1.01 1)"><tspan xml:space="preserve">         </tspan><tspan class="cls-2" x="361.95" y="0">FECT</tspan></text><text class="cls-6" transform="translate(177.65 950.88) scale(1.01 1)">P<tspan class="cls-7" x="93.16" y="0">AW</tspan></text></svg>