<svg id="Layer_1" data-name="Layer 1" xmlns="http://www.w3.org/2000/svg" viewBox="0 0 1080 1080"><defs><style>.cls-1,.cls-9{fill:#5b3c3c;}.cls-1,.cls-3{stroke:#af8080;stroke-miterlimit:10;}.cls-2{fill:#725454;}.cls-3{fill:none;opacity:0.77;}.cls-4{font-size:106.71px;}.cls-4,.cls-5{fill:#fff;font-family:Trattatello;}.cls-5{font-size:93.37px;}.cls-6{fill:#e5d8d8;}.cls-7{fill:#a07575;}.cls-8{fill:#cca6a6;}</style></defs><title>Sips&amp;amp;bites Coffee logo-1</title><circle class="cls-1" cx="527.11" cy="510.97" r="371.92"/><circle class="cls-2" cx="527.11" cy="510.97" r="249.52"/><circle class="cls-3" cx="527.11" cy="510.97" r="249.52"/><text class="cls-4" transform="translate(297.75 358.29) rotate(-51)">S</text><text class="cls-4" transform="translate(328.47 321.06) rotate(-43.19)">I</text><text class="cls-4" transform="translate(347.61 301.82) rotate(-35.53)">P</text><text class="cls-4" transform="translate(384.39 274.93) rotate(-25.83)">S</text><text class="cls-4" transform="translate(428.11 254.33) rotate(-18.12)"> </text><text class="cls-4" transform="translate(448.34 242.5) rotate(-5.39)">&amp;</text><text class="cls-4" transform="matrix(0.99, 0.12, -0.12, 0.99, 547.13, 236.64)"> </text><text class="cls-4" transform="matrix(0.97, 0.25, -0.25, 0.97, 572.1, 238.78)">B</text><text class="cls-4" transform="translate(616.98 250.92) rotate(22.41)">I</text><text class="cls-4" transform="translate(642.01 259) rotate(32.01)">T</text><text class="cls-4" transform="translate(696.58 293.51) rotate(43.47)">E</text><text class="cls-4" transform="matrix(0.6, 0.8, -0.8, 0.6, 730.8, 325.3)">S</text><text class="cls-4" transform="translate(759.35 364.36) rotate(60.88)"> </text><text class="cls-4" transform="translate(772.16 387.06) rotate(66.36)"> </text><text class="cls-4" transform="translate(782.75 410.87) rotate(71.85)"> </text><text class="cls-4" transform="matrix(0.22, 0.98, -0.98, 0.22, 791, 435.6)"> </text><text class="cls-4" transform="translate(796.85 461.02) rotate(82.82)"> </text><text class="cls-4" transform="translate(800.25 486.89) rotate(88.23)"> </text><text class="cls-4" transform="matrix(-0.06, 1, -1, -0.06, 801.19, 513.01)"> </text><text class="cls-4" transform="translate(799.7 539.06) rotate(99.04)"> </text><text class="cls-4" transform="matrix(-0.25, 0.97, -0.97, -0.25, 795.75, 564.81)"> </text><text class="cls-4" transform="translate(789.35 590.08) rotate(110.02)"> </text><text class="cls-4" transform="translate(780.56 614.62) rotate(115.5)"> </text><text class="cls-4" transform="translate(769.46 638.21) rotate(120.97)"> </text><text class="cls-4" transform="matrix(-0.59, 0.8, -0.8, -0.59, 756.16, 660.65)"> </text><text class="cls-4" transform="translate(740.77 681.74) rotate(131.85)"> </text><text class="cls-4" transform="translate(723.45 701.28) rotate(137.27)"> </text><text class="cls-4" transform="translate(704.38 719.1) rotate(142.69)"> </text><text class="cls-4" transform="matrix(-0.85, 0.53, -0.53, -0.85, 683.72, 735.01)"> </text><text class="cls-4" transform="matrix(-0.9, 0.44, -0.44, -0.9, 661.65, 748.9)"> </text><text class="cls-4" transform="translate(638.35 760.63) rotate(159.09)"> </text><text class="cls-4" transform="matrix(-0.96, 0.27, -0.27, -0.96, 614.07, 770.06)"> </text><text class="cls-4" transform="translate(588.97 777.13) rotate(170.07)"> </text><text class="cls-4" transform="translate(563.3 781.76) rotate(175.52)"> </text><text class="cls-4" transform="translate(537.29 783.94) rotate(-179.07)"> </text><text class="cls-4" transform="translate(511.14 783.67) rotate(-173.7)"> </text><text class="cls-4" transform="matrix(-0.98, -0.2, 0.2, -0.98, 485.21, 780.95)"> </text><text class="cls-4" transform="matrix(-0.95, -0.3, 0.3, -0.95, 459.66, 775.78)"> </text><text class="cls-4" transform="translate(434.75 768.19) rotate(-157.25)"> </text><text class="cls-4" transform="matrix(-0.88, -0.47, 0.47, -0.88, 410.65, 758.24)"> </text><text class="cls-4" transform="translate(387.6 746.02) rotate(-146.32)"> </text><text class="cls-4" transform="translate(365.8 731.66) rotate(-140.88)"> </text><text class="cls-4" transform="matrix(-0.71, -0.7, 0.7, -0.71, 345.47, 715.31)"> </text><text class="cls-4" transform="translate(326.76 697.09) rotate(-130.03)"> </text><text class="cls-4" transform="translate(309.87 677.2) rotate(-124.6)"> </text><text class="cls-4" transform="translate(294.95 655.82) rotate(-119.15)"> </text><text class="cls-4" transform="translate(282.12 633.12) rotate(-113.68)"> </text><text class="cls-4" transform="translate(271.52 609.29) rotate(-108.18)"> </text><text class="cls-4" transform="matrix(-0.22, -0.98, 0.98, -0.22, 263.25, 584.58)"> </text><text class="cls-4" transform="translate(257.4 559.19) rotate(-97.22)"> </text><text class="cls-4" transform="translate(253.98 533.29) rotate(-91.8)"> </text><text class="cls-4" transform="matrix(0.06, -1, 1, 0.06, 253.02, 507.17)"> </text><text class="cls-4" transform="translate(254.51 481.12) rotate(-80.99)"> </text><text class="cls-4" transform="matrix(0.25, -0.97, 0.97, 0.25, 258.45, 455.36)"> </text><text class="cls-4" transform="translate(264.83 430.08) rotate(-70.01)"> </text><text class="cls-4" transform="translate(273.61 405.55) rotate(-64.52)"> </text><text class="cls-4" transform="matrix(0.51, -0.86, 0.86, 0.51, 284.69, 381.95)"> </text><text class="cls-4" transform="translate(297.99 359.5) rotate(-53.61)"> </text><text class="cls-4" transform="translate(313.37 338.4) rotate(-48.18)"> </text><text class="cls-5" transform="matrix(0.7, 0.72, -0.72, 0.7, 276.68, 728.96)">C</text><text class="cls-5" transform="translate(304.68 758.29) rotate(37.05)">O</text><text class="cls-5" transform="translate(355.58 795.85) rotate(26.23)">F</text><text class="cls-5" transform="matrix(0.96, 0.27, -0.27, 0.96, 410.23, 822.26)">F</text><text class="cls-5" transform="matrix(0.99, 0.11, -0.11, 0.99, 468.34, 837.76)">E</text><text class="cls-5" transform="translate(517.52 842.79) rotate(-2.22)">E</text><text class="cls-5" transform="matrix(0.99, -0.15, 0.15, 0.99, 566.01, 840.15)"> </text><text class="cls-5" transform="translate(594.39 836.16) rotate(-15.58)">S</text><text class="cls-5" transform="translate(643.71 822.77) rotate(-26)">H</text><text class="cls-5" transform="translate(704.69 792.16) rotate(-37.07)">O</text><text class="cls-5" transform="translate(752.26 755.21) rotate(-46.37)">P</text><text class="cls-5" transform="translate(784.47 720.39) rotate(-52.89)"> </text><text class="cls-5" transform="matrix(0.54, -0.84, 0.84, 0.54, 801.11, 698.24)"> </text><text class="cls-5" transform="translate(815.83 674.82) rotate(-62.43)"> </text><text class="cls-5" transform="matrix(0.39, -0.92, 0.92, 0.39, 828.57, 650.21)"> </text><text class="cls-5" transform="translate(839.19 624.66) rotate(-72.03)"> </text><text class="cls-5" transform="translate(847.65 598.28) rotate(-76.84)"> </text><text class="cls-5" transform="translate(853.86 571.3) rotate(-81.63)"> </text><text class="cls-5" transform="translate(857.79 543.9) rotate(-86.39)"> </text><text class="cls-5" transform="translate(859.43 516.29) rotate(-91.09)"> </text><text class="cls-5" transform="translate(858.82 488.66) rotate(-95.81)"> </text><text class="cls-5" transform="translate(855.92 461.12) rotate(-100.59)"> </text><text class="cls-5" transform="translate(850.74 433.91) rotate(-105.39)"> </text><text class="cls-5" transform="matrix(-0.35, -0.94, 0.94, -0.35, 843.3, 407.26)"> </text><text class="cls-5" transform="translate(833.64 381.27) rotate(-115.01)"> </text><text class="cls-5" transform="translate(821.85 356.24) rotate(-119.79)"> </text><text class="cls-5" transform="translate(808.03 332.28) rotate(-124.56)"> </text><text class="cls-5" transform="translate(792.23 309.52) rotate(-129.32)"> </text><text class="cls-5" transform="translate(774.64 288.19) rotate(-134.06)"> </text><text class="cls-5" transform="matrix(-0.75, -0.66, 0.66, -0.75, 755.33, 268.37)"> </text><text class="cls-5" transform="matrix(-0.8, -0.59, 0.59, -0.8, 734.46, 250.23)"> </text><text class="cls-5" transform="matrix(-0.85, -0.53, 0.53, -0.85, 712.14, 233.86)"> </text><text class="cls-5" transform="translate(688.54 219.4) rotate(-153.1)"> </text><text class="cls-5" transform="matrix(-0.93, -0.38, 0.38, -0.93, 663.78, 206.95)"> </text><text class="cls-5" transform="matrix(-0.95, -0.3, 0.3, -0.95, 638.08, 196.62)"> </text><text class="cls-5" transform="translate(611.63 188.48) rotate(-167.51)"> </text><text class="cls-5" transform="translate(584.56 182.58) rotate(-172.3)"> </text><text class="cls-5" transform="matrix(-1, -0.05, 0.05, -1, 557.13, 178.98)"> </text><text class="cls-5" transform="matrix(-1, 0.03, -0.03, -1, 529.54, 177.65)"> </text><text class="cls-5" transform="translate(501.88 178.58) rotate(173.52)"> </text><text class="cls-5" transform="translate(474.4 181.79) rotate(168.74)"> </text><text class="cls-5" transform="translate(447.23 187.3) rotate(163.93)"> </text><text class="cls-5" transform="translate(420.67 195.05) rotate(159.13)"> </text><text class="cls-5" transform="translate(394.82 205.01) rotate(154.33)"> </text><text class="cls-5" transform="translate(369.92 217.08) rotate(149.54)"> </text><text class="cls-5" transform="translate(346.11 231.2) rotate(144.78)"> </text><text class="cls-5" transform="matrix(-0.77, 0.64, -0.64, -0.77, 323.54, 247.25)"> </text><text class="cls-5" transform="matrix(-0.71, 0.7, -0.7, -0.71, 302.42, 265.08)"> </text><text class="cls-5" transform="matrix(-0.65, 0.76, -0.76, -0.65, 282.82, 284.63)"> </text><text class="cls-5" transform="matrix(-0.58, 0.81, -0.81, -0.58, 264.92, 305.7)"> </text><text class="cls-5" transform="matrix(-0.52, 0.86, -0.86, -0.52, 248.8, 328.23)"> </text><text class="cls-5" transform="matrix(-0.44, 0.9, -0.9, -0.44, 234.63, 351.99)"> </text><text class="cls-5" transform="translate(222.47 376.88) rotate(111.43)"> </text><text class="cls-5" transform="translate(212.43 402.7) rotate(106.62)"> </text><text class="cls-5" transform="translate(204.61 429.26) rotate(101.82)"> </text><text class="cls-5" transform="translate(199.03 456.38) rotate(97.03)"> </text><text class="cls-5" transform="translate(195.74 483.85) rotate(92.29)"> </text><text class="cls-5" transform="translate(194.73 511.45) rotate(87.6)"> </text><path class="cls-6" d="M222,473.46c8.87,2.58,15.89,6.92,21.34,13.63,6.95,8.56,10.1,18.63,11.47,29.38,1.82,14.2.25,27.95-6.48,40.72a52,52,0,0,1-8,10.52,12.36,12.36,0,0,1-9.36,3.84c-5.31,0-9.35-2.88-11.28-8.06-2.41-6.49-2.33-13.25-1.21-19.87,1.6-9.44,3.65-18.82,5.88-28.13,1.87-7.78,3.71-15.51,3.24-23.58a39.49,39.49,0,0,0-4.29-15.82Zm27.88,34.09c2.48,18.11,1.76,35.83-6.63,52.59C253.84,543.66,254.22,525.9,249.84,507.55ZM247.55,525c-1.25,8.12-2.54,16.51-3.78,24.54A51.77,51.77,0,0,0,247.55,525Zm-25,38.72c-2-7.27-1.56-14.68-1.34-22.07C218.92,549.58,219.52,559.67,222.55,563.73Z"/><path class="cls-6" d="M215.89,572.56a38.29,38.29,0,0,1-14.9-7.3c-8.68-6.75-13.56-15.94-16.12-26.41-3.83-15.62-3.4-31.06,2.85-46.08,2.3-5.52,5.3-10.61,10-14.51a18.41,18.41,0,0,1,2.23-1.59c7.57-4.59,16.22-1.57,18.58,6.95a45.39,45.39,0,0,1,1.39,13.16c-.28,11.71-3.3,23-6.35,34.23-2.29,8.41-4,16.88-3,25.68a39.38,39.38,0,0,0,4.12,13.48C215.05,570.83,215.36,571.49,215.89,572.56Zm-27.71-33.4c-2.55-18.27-2-36.15,6.49-53.06C183.93,502.73,183.72,520.65,188.18,539.16Zm2.2-17.93c1.23-8.1,2.49-16.42,3.73-24.53A51.84,51.84,0,0,0,190.38,521.23ZM217.05,504c1.08-6.88,2.22-14.33-1.05-21.17C216.34,489.84,216.71,497.21,217.05,504Z"/><path class="cls-7" d="M216.92,469.92c14.25,2.62,25.07,9.35,32.29,21.5,12.3,20.69,11.43,53.05-2.22,72.39a30,30,0,0,1-7.85,7.55c-9,5.88-20,1.22-22.51-9.23a48.91,48.91,0,0,1-.3-20.82c1.89-10,4.27-20,6.59-29.94,1.86-8,3.17-15.92,1.67-24.1a41.35,41.35,0,0,0-5.87-14.43Zm5,3.54,1.31,2.63a39.49,39.49,0,0,1,4.29,15.82c.47,8.07-1.37,15.8-3.24,23.58-2.23,9.31-4.28,18.69-5.88,28.13-1.12,6.62-1.2,13.38,1.21,19.87,1.93,5.18,6,8,11.28,8.06a12.36,12.36,0,0,0,9.36-3.84,52,52,0,0,0,8-10.52c6.73-12.77,8.3-26.52,6.48-40.72-1.37-10.75-4.52-20.82-11.47-29.38C237.85,480.38,230.83,476,222,473.46Z"/><path class="cls-7" d="M220.91,576.17c-10.29-1.83-19-5.86-26-13.25-6.51-6.84-10.34-15.09-12.48-24.17-3.82-16.26-3.22-32.23,3.51-47.71a39,39,0,0,1,9.66-14,17.36,17.36,0,0,1,9.78-4.67c7.78-.83,13.84,3.6,15.89,11.55a46.49,46.49,0,0,1,.41,20.39c-2.05,10.73-4.6,21.37-7,32-2.15,9.42-3.24,18.84.28,28.15a100.48,100.48,0,0,0,4.79,9.64C220,574.7,220.38,575.27,220.91,576.17Zm-5-3.61c-.53-1.07-.84-1.73-1.18-2.39a39.38,39.38,0,0,1-4.12-13.48c-1-8.8.67-17.27,3-25.68,3-11.24,6.07-22.52,6.35-34.23a45.39,45.39,0,0,0-1.39-13.16c-2.36-8.52-11-11.54-18.58-6.95a18.41,18.41,0,0,0-2.23,1.59c-4.68,3.9-7.68,9-10,14.51-6.25,15-6.68,30.46-2.85,46.08,2.56,10.47,7.44,19.66,16.12,26.41A38.29,38.29,0,0,0,215.89,572.56Z"/><path class="cls-7" d="M249.84,507.55c4.38,18.35,4,36.11-6.63,52.59C251.6,543.38,252.32,525.66,249.84,507.55Z"/><path class="cls-7" d="M247.55,525a51.77,51.77,0,0,1-3.78,24.54C245,541.52,246.3,533.13,247.55,525Z"/><path class="cls-7" d="M222.55,563.73c-3-4.06-3.63-14.15-1.34-22.07C221,549.05,220.58,556.46,222.55,563.73Z"/><path class="cls-7" d="M188.18,539.16c-4.46-18.51-4.25-36.43,6.49-53.06C186.19,503,185.63,520.89,188.18,539.16Z"/><path class="cls-7" d="M190.38,521.23a51.84,51.84,0,0,1,3.73-24.53C192.87,504.81,191.61,513.13,190.38,521.23Z"/><path class="cls-7" d="M217.05,504c-.34-6.8-.71-14.17-1.05-21.17C219.27,489.68,218.13,497.13,217.05,504Z"/><path class="cls-6" d="M836,473.46c8.88,2.58,15.89,6.92,21.34,13.63,7,8.56,10.1,18.63,11.48,29.38,1.81,14.2.24,27.95-6.49,40.72a51.67,51.67,0,0,1-8,10.52,12.36,12.36,0,0,1-9.36,3.84c-5.31,0-9.34-2.88-11.27-8.06-2.42-6.49-2.34-13.25-1.22-19.87,1.61-9.44,3.65-18.82,5.88-28.13,1.87-7.78,3.71-15.51,3.24-23.58a39.64,39.64,0,0,0-4.28-15.82C836.92,475.41,836.58,474.72,836,473.46Zm27.88,34.09c2.48,18.11,1.77,35.83-6.63,52.59C867.83,543.66,868.21,525.9,863.83,507.55ZM861.54,525c-1.25,8.12-2.54,16.51-3.78,24.54A51.77,51.77,0,0,0,861.54,525Zm-25,38.72c-2-7.27-1.56-14.68-1.34-22.07C832.91,549.58,833.51,559.67,836.54,563.73Z"/><path class="cls-6" d="M829.88,572.56a38.29,38.29,0,0,1-14.9-7.3c-8.67-6.75-13.55-15.94-16.12-26.41-3.83-15.62-3.39-31.06,2.85-46.08,2.3-5.52,5.3-10.61,10-14.51a18.41,18.41,0,0,1,2.23-1.59c7.57-4.59,16.22-1.57,18.59,6.95a46.09,46.09,0,0,1,1.39,13.16c-.29,11.71-3.3,23-6.36,34.23-2.28,8.41-4,16.88-3,25.68a39.4,39.4,0,0,0,4.13,13.48C829,570.83,829.36,571.49,829.88,572.56Zm-27.71-33.4c-2.55-18.27-2-36.15,6.49-53.06C797.92,502.73,797.71,520.65,802.17,539.16Zm2.21-17.93c1.22-8.1,2.49-16.42,3.72-24.53A51.71,51.71,0,0,0,804.38,521.23ZM831,504c1.08-6.88,2.23-14.33-1-21.17C830.34,489.84,830.7,497.21,831,504Z"/><path class="cls-7" d="M830.91,469.92c14.26,2.62,25.08,9.35,32.3,21.5,12.29,20.69,11.42,53.05-2.23,72.39a29.83,29.83,0,0,1-7.85,7.55c-9,5.88-20,1.22-22.51-9.23a48.91,48.91,0,0,1-.3-20.82c1.89-10,4.27-20,6.59-29.94,1.86-8,3.17-15.92,1.67-24.1a41.35,41.35,0,0,0-5.87-14.43Zm5,3.54c.63,1.26,1,2,1.32,2.63a39.64,39.64,0,0,1,4.28,15.82c.47,8.07-1.37,15.8-3.24,23.58-2.23,9.31-4.27,18.69-5.88,28.13-1.12,6.62-1.2,13.38,1.22,19.87,1.93,5.18,6,8,11.27,8.06a12.36,12.36,0,0,0,9.36-3.84,51.67,51.67,0,0,0,8-10.52c6.73-12.77,8.3-26.52,6.49-40.72-1.38-10.75-4.53-20.82-11.48-29.38C851.84,480.38,844.83,476,836,473.46Z"/><path class="cls-7" d="M834.9,576.17c-10.29-1.83-19-5.86-26-13.25-6.5-6.84-10.34-15.09-12.47-24.17-3.83-16.26-3.23-32.23,3.5-47.71a39,39,0,0,1,9.66-14,17.39,17.39,0,0,1,9.78-4.67c7.78-.83,13.84,3.6,15.89,11.55a46.49,46.49,0,0,1,.41,20.39c-2,10.73-4.59,21.37-7,32-2.15,9.42-3.24,18.84.28,28.15a98.28,98.28,0,0,0,4.8,9.64C834,574.7,834.38,575.27,834.9,576.17Zm-5-3.61c-.52-1.07-.84-1.73-1.17-2.39a39.4,39.4,0,0,1-4.13-13.48c-1-8.8.68-17.27,3-25.68,3.06-11.24,6.07-22.52,6.36-34.23a46.09,46.09,0,0,0-1.39-13.16c-2.37-8.52-11-11.54-18.59-6.95a18.41,18.41,0,0,0-2.23,1.59c-4.68,3.9-7.68,9-10,14.51-6.24,15-6.68,30.46-2.85,46.08,2.57,10.47,7.45,19.66,16.12,26.41A38.29,38.29,0,0,0,829.88,572.56Z"/><path class="cls-7" d="M863.83,507.55c4.38,18.35,4,36.11-6.63,52.59C865.6,543.38,866.31,525.66,863.83,507.55Z"/><path class="cls-7" d="M861.54,525a51.77,51.77,0,0,1-3.78,24.54C859,541.52,860.29,533.13,861.54,525Z"/><path class="cls-7" d="M836.54,563.73c-3-4.06-3.63-14.15-1.34-22.07C835,549.05,834.58,556.46,836.54,563.73Z"/><path class="cls-7" d="M802.17,539.16c-4.46-18.51-4.25-36.43,6.49-53.06C800.19,503,799.62,520.89,802.17,539.16Z"/><path class="cls-7" d="M804.38,521.23a51.71,51.71,0,0,1,3.72-24.53C806.87,504.81,805.6,513.13,804.38,521.23Z"/><path class="cls-7" d="M831,504c-.34-6.8-.7-14.17-1-21.17C833.27,489.68,832.12,497.13,831,504Z"/><path class="cls-8" d="M649.24,610.26C639,643.67,606.6,651.63,606.6,651.63s-1.93.64-13.87,3.93S552,660,552,660l-148.74-.48c.29-50,3.65-70.6,3.65-70.6,5.76-34.75,34.12-48,42.36-51-12.81-18.67-29.15-26-36.05-28.4l.05,0h-.16c-2-.7-3.19-1-3.19-1,26,1.71,41.26,25,43.2,28.17,8.7-3,43.16-13.14,78.66-1.43,41.08,13.55,36,48.3,36,48.3s2.18,30-27.32,33c-31.74,3.25-43.08-15.49-43.08-15.49-1.41-2.09-17.25-20.78-22.51-38.86C472.52,554.15,463.81,537,454,537h-.51l-.15,0-.16,0-.33,0a1.59,1.59,0,0,0-.33.08,1.62,1.62,0,0,0-.52.14,2.81,2.81,0,0,0-.58.19,2.53,2.53,0,0,0-.55.18l-1.45.44a3,3,0,0,0-.42,2.55l2.51,7.69c2.29,6.66,5.39,14.91,7.67,22,.18.57,3.36,7.93,3.45,8.08.35.75,5.41,11.65,5.8,12.36,3.55,6.31,1.92,3.16,6.14,9.38,3.74,5.54,5.87,8.92,10.51,13.23,3.12,2.91,9.38,6.79,14.32,9a39,39,0,0,0,4.47,1.58,22.44,22.44,0,0,1,2.24.72c19.1,6.91,36.47,2.49,45,1.39,10.77-1.36,22.66-6.86,23-7,0,.08-.08.37,7.37-3.94a41.38,41.38,0,0,0,12.81-12.29s.73-1.16,1.49-2.41c.53-.88,1.46-2.91,2-4,.22-.5.42-1,.62-1.49l.31-.84c.15-.42.3-.86.44-1.3l.26-.83c.13-.39.24-.79.33-1.17l.31-1.22c.17-.67.31-1.35.42-2.05l.37-2.07c.11-.66.2-1.34.28-2l.13-1.36c0-.57.09-1.16.11-1.73l.09-2v-1.77c0-.58,0-1.17-.06-1.74l-.09-1.36c0-.51-.07-1-.15-1.54l-.09-.79c0-.53-.13-1.06-.22-1.59l-.37-2-.33-1.43-.45-1.71-.37-1.15L599,562l-.49-1.3-.61-1.45-.68-1.43-.79-1.51-.84-1.48-1.05-1.65-1-1.45-1.12-1.47-1.32-1.56-1.27-1.39-.49-.52-1.18-1.14-.95-.88-1.08-1-1.22-1-1.08-.84-1.52-1.11-2.22-1.5-2.33-1.45-2.24-1.27-3-1.57s-3.49-1.64-4.27-2-4.63-1.86-4.63-1.86l-3.5-1.23-7.76-2.27c-3.47-1.63-25.3-5-25.3-5l-22.61-4L484.65,515s-20.68-4.66-22.57-5.14-16.4-4.8-16.4-4.8c-43.94-14.5-41.21-59.69-41.21-59.69l-.09-83.48s102.67.46,150.46,1.89,63.72,28.66,63.72,28.66c23.29,38.84,12.72,62.6-7.81,77.22-18.09,12.87-34.22,14.81-62.46,16.22-8.82.44-19.88-2.42-33.42-5C472.8,472.68,487.11,427,487.11,427s6.11-29.08,39.48-24.91S559.27,440,559.27,440h33.22c-4.31-21.89-11.56-26-21.78-34.84s-32.53-11.78-32.53-11.78-40.34-7.28-67.31,12.05-16.73,48.88-16.73,48.88a46.68,46.68,0,0,0,16.67,22.51c13,9.47,30.75,13.58,30.75,13.58s5.43,1.37,31,6.13,53.68,9.57,81.57,23.9,35.08,37.63,35.08,37.63S659.55,576.85,649.24,610.26Z"/><path class="cls-9" d="M413.31,509.52l-.05,0a.23.23,0,0,0-.11,0Z"/><path class="cls-8" d="M417.77,502s.65,4.52,2.11,6.6c0,0-6.46-3-4-13.26,0,0,7.21,5.9,4.67,13.06C420.54,508.35,418.18,504.56,417.77,502Z"/><path class="cls-8" d="M413.15,509.52h.16l-.05,0c-.64.3-6.68,2.72-12.86-5.06,0,0,9.1-2,13.17,4.38a25.79,25.79,0,0,1-6.26-1.5A19.1,19.1,0,0,0,413.15,509.52Z"/><path class="cls-8" d="M426.5,523.44s3.75-1,5.37-2.38c0,0-2,5.72-10.81,4.59,0,0,4.31-6.62,10.58-5.13A19.09,19.09,0,0,1,426.5,523.44Z"/><path class="cls-8" d="M429.13,502.36s-.92,8.44-.18,10.86c0,0-5.2-4.88.29-13.85,0,0,5,7.84.4,13.87C429.64,513.24,428.71,505,429.13,502.36Z"/><path class="cls-8" d="M432.31,532.48s6.66-2.66,8.18-4.17c0,0-1.59,5.81-10.45,5.27,0,0,3.85-6.86,10.18-5.79C440.22,527.79,434.43,531.76,432.31,532.48Z"/><path class="cls-8" d="M439.41,511.48s-2.42,5.53-1.49,8.17c0,0-4.41-5.6,2.34-13.65,0,0,3.82,8.49-1.66,13.77C438.6,519.77,440,513.77,439.41,511.48Z"/><path class="cls-8" d="M415.67,517.77s5.3-1.4,6.65-3.56c0,0-1.49,6.31-11,6,0,0,3.89-7.52,10.73-6.6C422,513.66,417,516.05,415.67,517.77Z"/><path class="cls-8" d="M448.2,520.41s-1.71,5.06-1.54,7.45c0,0-3.75-5.59,3.18-12.68,0,0,3,8.27-2.55,12.84C447.29,528,447.84,522.6,448.2,520.41Z"/><path class="cls-9" d="M494.5,539.62c2.79-1,5.43-2.17,8.18-2.91A35.64,35.64,0,0,1,531,540.86c14.14,8.41,24.2,20.31,29.39,36,1.76,5.35,2.66,10.86,1.53,16.52-2,9.78-11.75,13.49-19.71,7.49A41,41,0,0,1,531,587.38c-3.86-7.12-7.4-14.43-10.87-21.76S512.9,551,506,546.14C502.55,543.7,498.62,541.92,494.5,539.62Zm4.88.15c2.72,1.64,5.15,2.91,7.36,4.49,7,5,11.14,12.26,14.78,19.87s7.39,15.47,11.52,23c2.88,5.23,6.5,10.07,11.8,13.24,5.73,3.42,12.55,1.1,14.53-5.26a20.13,20.13,0,0,0,.9-9c-3.76-22.44-16.51-38-37.34-46.7C515.41,536.2,507.5,536.74,499.38,539.77Z"/><path class="cls-9" d="M551.33,608.12a36.07,36.07,0,0,1-19.68,4.15c-10-.77-18.32-5.26-25.72-11.67-10.95-9.49-18.83-20.92-21.65-35.4a25.32,25.32,0,0,1,.29-12.29c2.55-8.48,11.53-11.53,18.73-6.35,5.82,4.19,9.81,9.93,13.08,16.11,3.76,7.1,7.15,14.41,10.55,21.69,4.93,10.52,11.81,19,23.27,22.8a3.25,3.25,0,0,1,.81.41C551.12,607.64,551.16,607.81,551.33,608.12Zm-4.76,0c-3-1.89-5.66-3.38-8.1-5.2-7-5.22-10.82-12.73-14.45-20.39-3.38-7.12-6.8-14.22-10.56-21.14-2.75-5-6.18-9.72-11-13.11-6.89-4.84-14.58-1.85-16.4,6.37-1,4.69-.37,9.31.88,13.86,3.1,11.33,9.41,20.71,17.92,28.64,6.77,6.31,14.37,11.21,23.7,12.83A33.33,33.33,0,0,0,546.57,608.14Z"/><path class="cls-6" d="M499.38,539.77c8.12-3,16-3.57,23.55-.41,20.83,8.73,33.58,24.26,37.34,46.7a20.13,20.13,0,0,1-.9,9c-2,6.36-8.8,8.68-14.53,5.26-5.3-3.17-8.92-8-11.8-13.24-4.13-7.5-7.83-15.24-11.52-23s-7.75-14.83-14.78-19.87C504.53,542.68,502.1,541.41,499.38,539.77Zm58.06,44c-2.4-14.57-10.75-25.37-21.88-34.41C545.45,559.15,553.62,570.07,557.44,583.74Zm-14.83-22.18,9.38,16A39.82,39.82,0,0,0,542.61,561.56Zm3.67,37.05L535,586.88C537.69,591.53,540.81,596.15,546.28,598.61Z"/><path class="cls-6" d="M546.57,608.14a33.33,33.33,0,0,1-18,1.86c-9.33-1.62-16.93-6.52-23.7-12.83-8.51-7.93-14.82-17.31-17.92-28.64-1.25-4.55-1.92-9.17-.88-13.86,1.82-8.22,9.51-11.21,16.4-6.37,4.81,3.39,8.24,8.06,11,13.11,3.76,6.92,7.18,14,10.56,21.14,3.63,7.66,7.45,15.17,14.45,20.39C540.91,604.76,543.59,606.25,546.57,608.14Zm-57.91-43.87c2.34,14.05,10.26,24.61,20.92,33.46C500.19,588.09,492.4,577.44,488.66,564.27Zm5.57,6.34a40.88,40.88,0,0,0,9.48,16Zm17.48-8.56c-3.09-5.15-6.1-10.33-11.46-13Z"/><path class="cls-9" d="M557.44,583.74c-3.82-13.67-12-24.59-21.88-34.41C546.69,558.37,555,569.17,557.44,583.74Z"/><path class="cls-9" d="M542.61,561.56a39.82,39.82,0,0,1,9.38,16Z"/><path class="cls-9" d="M546.28,598.61c-5.47-2.46-8.59-7.08-11.27-11.73Z"/><path class="cls-9" d="M488.66,564.27c3.74,13.17,11.53,23.82,20.92,33.46C498.92,588.88,491,578.32,488.66,564.27Z"/><path class="cls-9" d="M494.23,570.61l9.48,16A40.88,40.88,0,0,1,494.23,570.61Z"/><path class="cls-9" d="M511.71,562.05l-11.46-13C505.61,551.72,508.62,556.9,511.71,562.05Z"/></svg>